<svg width="32" height="32" viewBox="0 0 32 32" fill="none" xmlns="http://www.w3.org/2000/svg">
<path d="M16 2C8.26801 2 2 8.26801 2 16C2 23.732 8.26801 30 16 30C23.732 30 30 23.732 30 16C30 8.26801 23.732 2 16 2ZM16 4C22.6274 4 28 9.37258 28 16C28 22.6274 22.6274 28 16 28C9.37258 28 4 22.6274 4 16C4 9.37258 9.37258 4 16 4Z" fill="#2E7D32"/>
<path d="M15 9L15 12L12 12L12 14L15 14L15 17H10V19H15V22L18 22L18 19H20V17H18L18 14L21 14V12L18 12V9H15Z" fill="#2E7D32"/>
<path d="M16.5 10.5L16.5 12.5L14 12.5V13.5L16.5 13.5V15.5H11.5V17.5H16.5V20.5L19.5 20.5V17.5H21.5V15.5H19.5V13.5L22.5 13.5V11.5L19.5 11.5V10.5H16.5Z" fill="#64B5F6"/>
</svg>